<?xml version="1.0" encoding="UTF-8"?>
<svg width="280px" height="599px" viewBox="0 0 280 599" version="1.1" xmlns="http://www.w3.org/2000/svg" xmlns:xlink="http://www.w3.org/1999/xlink">
    <title>honey-left</title>
    <g id="honey-left" stroke="none" stroke-width="1" fill="none" fill-rule="evenodd">
        <path d="M237.558242,481.820665 L250,474.585962 L250,459.611809 L250,444.693738 L237.278022,437.346869 L224.5,430 L211.778022,437.346869 L199,444.693738 L199,459.667892 L199,474.585962 L211.32967,481.764582 C218.110989,485.746473 223.995604,488.999286 224.387912,488.999286 C224.724176,489.055368 230.664835,485.802556 237.558242,481.820665 Z" id="Path" fill="#000000" fill-rule="nonzero" transform="translate(224.500000, 459.500000) scale(-1, 1) rotate(-180.000000) translate(-224.500000, -459.500000) "></path>
        <path d="M292.502198,481.820665 L305,474.585962 L305,459.667892 L305,444.693738 L292.278022,437.346869 L279.5,430 L266.778022,437.346869 L254,444.693738 L254,459.667892 L254,474.585962 L266.32967,481.764582 C273.110989,485.746473 278.93956,488.999286 279.331868,488.999286 C279.668132,489.055368 285.608791,485.802556 292.502198,481.820665 Z" id="Path" fill="#000000" fill-rule="nonzero" transform="translate(279.500000, 459.500000) scale(-1, 1) rotate(-180.000000) translate(-279.500000, -459.500000) "></path>
        <path d="M157.108696,527.699433 L166.717391,522.085066 L166.886957,507.056711 L167,492.028355 L154,484.485822 L141,477 L128,484.485822 L115,492.028355 L115,507.113422 L115.056522,522.141777 L127.886957,529.570888 L140.717391,537 L144.108696,535.128544 C145.973913,534.10775 151.852174,530.761815 157.108696,527.699433 Z" id="Path" fill="#000000" fill-rule="nonzero" transform="translate(141.000000, 507.000000) scale(-1, 1) rotate(-180.000000) translate(-141.000000, -507.000000) "></path>
        <path d="M101.108696,432.699433 L110.717391,427.085066 L110.886957,412.056711 L111,397.028355 L98,389.485822 L85,382 L72,389.485822 L59,397.028355 L59,412.113422 L59.0565217,427.141777 L71.8869565,434.570888 L84.7173913,442 L88.1086957,440.128544 C89.973913,439.10775 95.8521739,435.761815 101.108696,432.699433 Z" id="Path-Copy" fill="#000000" fill-rule="nonzero" transform="translate(85.000000, 412.000000) scale(-1, 1) rotate(-180.000000) translate(-85.000000, -412.000000) "></path>
        <path d="M75.1086957,383.699433 L84.7173913,378.085066 L84.8869565,363.056711 L85,348.028355 L72,340.485822 L59,333 L46,340.485822 L33,348.028355 L33,363.113422 L33.0565217,378.141777 L45.8869565,385.570888 L58.7173913,393 L62.1086957,391.128544 C63.973913,390.10775 69.8521739,386.761815 75.1086957,383.699433 Z" id="Path-Copy-3" fill="#000000" fill-rule="nonzero" transform="translate(59.000000, 363.000000) scale(-1, 1) rotate(-180.000000) translate(-59.000000, -363.000000) "></path>
        <path d="M209.282609,529.814462 L221.717391,522.628925 L221.886957,507.752617 L222,492.876308 L209,485.410086 L196,478 L183,485.466223 L170,492.932445 L170.113043,507.752617 L170.282609,522.628925 L182.717391,529.814462 C189.556522,533.744053 195.547826,536.943863 196,537 C196.452174,537 202.443478,533.744053 209.282609,529.814462 Z" id="Path" fill="#000000" fill-rule="nonzero" transform="translate(196.000000, 507.500000) scale(-1, 1) rotate(-180.000000) translate(-196.000000, -507.500000) "></path>
        <path d="M153.282609,434.814462 L165.717391,427.628925 L165.886957,412.752617 L166,397.876308 L153,390.410086 L140,383 L127,390.466223 L114,397.932445 L114.113043,412.752617 L114.282609,427.628925 L126.717391,434.814462 C133.556522,438.744053 139.547826,441.943863 140,442 C140.452174,442 146.443478,438.744053 153.282609,434.814462 Z" id="Path-Copy-2" fill="#000000" fill-rule="nonzero" transform="translate(140.000000, 412.500000) scale(-1, 1) rotate(-180.000000) translate(-140.000000, -412.500000) "></path>
        <path d="M265.282609,529.86381 L277.717391,522.671429 L277.886957,507.780952 L278,492.890476 L265,485.417143 L252,478 L239,485.473333 L226,492.946667 L226.113043,507.780952 L226.282609,522.671429 L238.717391,529.86381 C245.556522,533.797143 251.547826,537 252,537 C252.452174,537 258.443478,533.797143 265.282609,529.86381 Z" id="Path" fill="#000000" fill-rule="nonzero" transform="translate(252.000000, 507.500000) scale(-1, 1) rotate(-180.000000) translate(-252.000000, -507.500000) "></path>
        <path d="M182.169565,577.5 L195,570.113636 L195,555.056818 L195,540 L182,532.5 L169.056522,525 L156,532.5 L143,540 L143,555.056818 L143.056522,570.113636 L155.886957,577.613636 C162.952174,581.704545 168.886957,585 169.056522,585 C169.226087,584.943182 175.16087,581.590909 182.169565,577.5 Z" id="Path" fill="#000000" fill-rule="nonzero" transform="translate(169.000000, 555.000000) scale(-1, 1) rotate(-180.000000) translate(-169.000000, -555.000000) "></path>
        <path d="M292.169565,577.507096 L305,570.12772 L305,555.085147 L305,540.042573 L292,532.549669 L279,525 L266,532.549669 L253,540.042573 L253,555.085147 L253.056522,570.12772 L265.886957,577.620624 C272.952174,581.707663 278.886957,585 279.056522,585 C279.226087,584.943236 285.104348,581.594134 292.169565,577.507096 Z" id="Path" fill="#000000" fill-rule="nonzero" transform="translate(279.000000, 555.000000) scale(-1, 1) rotate(-180.000000) translate(-279.000000, -555.000000) "></path>
        <path d="M99.0565217,625.514178 L112,618.028355 L112,602.943289 L111.943478,587.914934 L99,580.429112 L86,573 L73.1130435,580.485822 L60.2826087,587.914934 L60.1130435,603 L60,618.028355 L72.8304348,625.514178 C79.9521739,629.597353 85.773913,633 85.8869565,633 C86,633 91.8782609,629.597353 99.0565217,625.514178 Z" id="Path" fill="#000000" fill-rule="nonzero" transform="translate(86.000000, 603.000000) scale(-1, 1) rotate(-180.000000) translate(-86.000000, -603.000000) "></path>
        <path d="M154,625.563247 L167,618.013666 L167,602.971268 L166.943478,587.92887 L153.943478,580.436053 L141,573 L128.113043,580.492817 L115.282609,587.92887 L115.113043,602.971268 L115,618.013666 L127.830435,625.506483 C134.952174,629.650238 140.773913,632.999301 140.886957,632.999301 C140.943478,633.056064 146.878261,629.650238 154,625.563247 Z" id="Path" fill="#000000" fill-rule="nonzero" transform="translate(141.000000, 603.000000) scale(-1, 1) rotate(-180.000000) translate(-141.000000, -603.000000) "></path>
        <path d="M209,625.563247 L222,618.013666 L222,602.971268 L221.943478,587.92887 L208.943478,580.436053 L196,573 L183.113043,580.492817 L170.282609,587.92887 L170.113043,602.971268 L170,618.013666 L182.830435,625.506483 C189.952174,629.650238 195.773913,632.999301 195.886957,632.999301 C195.943478,633.056064 201.878261,629.650238 209,625.563247 Z" id="Path" fill="#000000" fill-rule="nonzero" transform="translate(196.000000, 603.000000) scale(-1, 1) rotate(-180.000000) translate(-196.000000, -603.000000) "></path>
    </g>
</svg>