<?xml version="1.0" encoding="UTF-8"?>
<svg width="512px" height="512px" viewBox="0 0 512 512" version="1.1" xmlns="http://www.w3.org/2000/svg" xmlns:xlink="http://www.w3.org/1999/xlink">
    <title>uorphia-base</title>
    <defs>
        <linearGradient x1="50%" y1="5.57084755%" x2="50%" y2="94.8429176%" id="linearGradient-1">
            <stop stop-color="#C655E6" offset="0%"></stop>
            <stop stop-color="#97C5F7" offset="41.3508235%"></stop>
            <stop stop-color="#01362B" offset="100%"></stop>
        </linearGradient>
        <radialGradient cx="50%" cy="0%" fx="50%" fy="0%" r="105.638858%" gradientTransform="translate(0.500000,0.000000),scale(1.000000,0.833876),rotate(90.000000),translate(-0.500000,-0.000000)" id="radialGradient-2">
            <stop stop-color="#000000" stop-opacity="0" offset="0%"></stop>
            <stop stop-color="#000000" offset="100%"></stop>
        </radialGradient>
        <linearGradient x1="36.5441064%" y1="3.0976755%" x2="63.9095737%" y2="100%" id="linearGradient-3">
            <stop stop-color="#01F8FF" stop-opacity="0.5" offset="0%"></stop>
            <stop stop-color="#E27824" stop-opacity="0.5" offset="28.9745434%"></stop>
            <stop stop-color="#FF00C7" stop-opacity="0.915189303" offset="100%"></stop>
        </linearGradient>
        <polygon id="path-4" points="384 381 128 381 128 74 384 74"></polygon>
    </defs>
    <g id="uorphia-base" stroke="none" stroke-width="1" fill="none" fill-rule="evenodd">
        <g id="body" transform="translate(128.000000, 74.000000)">
            <path d="M256,0 L256,307 L0,307 L0,0 L256,0 Z" id="@color-body" fill="#330D4E"></path>
            <rect id="@shadow-body" fill="#282828" opacity="0.654499368" style="mix-blend-mode: overlay;" x="16" y="291" width="224" height="16"></rect>
            <rect id="@shadow-head-right" fill="#3A3A3A" style="mix-blend-mode: overlay;" x="240" y="291" width="16" height="16"></rect>
            <rect id="shadow-horn-left-scale" fill="#3A3A3A" style="mix-blend-mode: overlay;" x="1.13686838e-13" y="291" width="16" height="16"></rect>
            <rect id="@highlight-body" fill="#E0E0E0" opacity="0.495708151" x="1.13686838e-13" y="0" width="256" height="96"></rect>
            <rect id="glare-dupe" fill="#CECECE" opacity="0.361793428" style="mix-blend-mode: screen;" x="1.13686838e-13" y="96" width="16" height="16"></rect>
            <rect id="glare" fill="#FCFCFC" opacity="0.361793428" x="1.13686838e-13" y="0" width="16" height="16"></rect>
            <g id="detail" transform="translate(0.000000, 0.000000)">
                <rect id="highlight-dent-left" fill="#8B8B8B" opacity="0.687443273" style="mix-blend-mode: screen;" x="56" y="164" width="16" height="16"></rect>
                <rect id="highlight-dent-top" fill="#8B8B8B" style="mix-blend-mode: screen;" x="72" y="148" width="16" height="16"></rect>
                <rect id="shadow-dent" fill="#4A4A4A" style="mix-blend-mode: overlay;" x="72" y="164" width="16" height="16"></rect>
                <rect id="highlight-right" fill="#5D5D5D" style="mix-blend-mode: screen;" x="240" y="96" width="16" height="16"></rect>
                <rect id="highlight-head-top" fill="#DFDFDF" opacity="0.476812385" style="mix-blend-mode: screen;" x="16" y="0" width="240" height="16"></rect>
                <rect id="highlight-head-left" fill="#DFDFDF" opacity="0.664074707" style="mix-blend-mode: screen;" x="0" y="0" width="16" height="96"></rect>
            </g>
        </g>
        <g id="tooth" transform="translate(327.000000, 381.000000)">
            <polygon id="@color-tooth" fill="#330D4E" points="-2.76861867e-15 0 57 0 57 56 1 56"></polygon>
            <g id="shadow-tooth" opacity="0.498194077" style="mix-blend-mode: soft-light;" transform="translate(1.000000, 0.000000)">
                <rect id="Rectangle-Copy-4" fill="#070707" style="mix-blend-mode: overlay;" x="0" y="0" width="56" height="16"></rect>
                <rect id="Rectangle-Copy-35" fill="#363535" style="mix-blend-mode: overlay;" x="0" y="40" width="16" height="16"></rect>
                <rect id="Rectangle-Copy-36" fill="#ADAAAA" style="mix-blend-mode: screen;" x="16" y="40" width="16" height="16"></rect>
            </g>
        </g>
        <g id="tooth" transform="translate(261.000000, 381.000000)">
            <rect id="@color-tooth" fill="#330D4E" x="0" y="0" width="56" height="56"></rect>
            <g id="shadow-tooth" opacity="0.498194077" style="mix-blend-mode: soft-light;">
                <rect id="Rectangle-Copy-4" fill="#070707" style="mix-blend-mode: overlay;" x="0" y="0" width="56" height="16"></rect>
                <rect id="Rectangle-Copy-35" fill="#363535" style="mix-blend-mode: overlay;" x="0" y="40" width="16" height="16"></rect>
                <rect id="Rectangle-Copy-36" fill="#ADAAAA" style="mix-blend-mode: screen;" x="16" y="40" width="16" height="16"></rect>
            </g>
        </g>
        <g id="tooth" transform="translate(195.000000, 381.000000)">
            <rect id="@color-tooth" fill="#330D4E" x="0" y="0" width="56" height="56"></rect>
            <g id="shadow-tooth" opacity="0.498194077" style="mix-blend-mode: soft-light;">
                <rect id="Rectangle-Copy-4" fill="#070707" style="mix-blend-mode: overlay;" x="0" y="0" width="56" height="16"></rect>
                <rect id="Rectangle-Copy-35" fill="#363535" style="mix-blend-mode: overlay;" x="0" y="40" width="16" height="16"></rect>
                <rect id="Rectangle-Copy-36" fill="#ADAAAA" style="mix-blend-mode: screen;" x="16" y="40" width="16" height="16"></rect>
            </g>
        </g>
        <g id="tooth" transform="translate(128.000000, 381.000000)">
            <rect id="@color-tooth" fill="#330D4E" x="0" y="0" width="56" height="56"></rect>
            <g id="shadow-tooth" opacity="0.498194077" style="mix-blend-mode: soft-light;">
                <rect id="Rectangle-Copy-4" fill="#070707" style="mix-blend-mode: overlay;" x="0" y="0" width="56" height="16"></rect>
                <rect id="Rectangle-Copy-35" fill="#363535" style="mix-blend-mode: overlay;" x="0" y="40" width="16" height="16"></rect>
                <rect id="Rectangle-Copy-36" fill="#ADAAAA" style="mix-blend-mode: screen;" x="16" y="40" width="16" height="16"></rect>
            </g>
        </g>
        <polygon id="@light" fill="url(#linearGradient-1)" opacity="0.505026425" style="mix-blend-mode: screen;" points="384 381 128 381 128 74 384 74"></polygon>
        <g id="@shader" opacity="0.349261834" style="mix-blend-mode: multiply;">
            <use fill="url(#radialGradient-2)" xlink:href="#path-4"></use>
            <use fill="url(#linearGradient-3)" xlink:href="#path-4"></use>
        </g>
        <g id="eye" transform="translate(181.000000, 288.000000)">
            <rect id="eye-hole" fill="#595959" style="mix-blend-mode: overlay;" x="0" y="0" width="64" height="64"></rect>
            <rect id="eye-hole-depth" fill="#070707" opacity="0.50416547" x="0" y="0" width="64" height="50"></rect>
            <rect id="fade" fill="#8D8D8D" x="11" y="8" width="42" height="42"></rect>
            <rect id="top-fade" fill="#D2D2D2" x="11" y="8" width="42" height="16"></rect>
            <rect id="top-front-highlight" fill="#F0F0F0" x="11" y="8" width="16" height="16"></rect>
            <rect id="left-highlight" fill="#BEBEBE" x="11" y="24" width="16" height="26"></rect>
            <rect id="top-high-light" fill="#D9D9D9" x="11" y="0" width="42" height="8"></rect>
            <rect id="eye-color" fill="#150092" opacity="0.583067412" style="mix-blend-mode: hard-light;" x="11" y="0" width="42" height="50"></rect>
        </g>
        <g id="eye" transform="translate(267.000000, 288.000000)">
            <rect id="eye-hole" fill="#595959" style="mix-blend-mode: overlay;" x="0" y="0" width="64" height="64"></rect>
            <rect id="eye-hole-depth" fill="#070707" opacity="0.50416547" x="0" y="0" width="64" height="50"></rect>
            <rect id="fade" fill="#8D8D8D" x="11" y="8" width="42" height="42"></rect>
            <rect id="top-fade" fill="#D2D2D2" x="11" y="8" width="42" height="16"></rect>
            <rect id="top-front-highlight" fill="#F0F0F0" x="11" y="8" width="16" height="16"></rect>
            <rect id="left-highlight" fill="#BEBEBE" x="11" y="24" width="16" height="26"></rect>
            <rect id="top-high-light" fill="#D9D9D9" x="11" y="0" width="42" height="8"></rect>
            <rect id="eye-color" fill="#150092" opacity="0.583067412" style="mix-blend-mode: hard-light;" x="11" y="0" width="42" height="50"></rect>
        </g>
        <g id="eye" transform="translate(224.000000, 211.000000)">
            <rect id="eye-hole" fill="#595959" style="mix-blend-mode: overlay;" x="0" y="0" width="64" height="64"></rect>
            <rect id="eye-hole-depth" fill="#070707" opacity="0.50416547" x="0" y="0" width="64" height="50"></rect>
            <rect id="fade" fill="#8D8D8D" x="11" y="8" width="42" height="42"></rect>
            <rect id="top-fade" fill="#D2D2D2" x="11" y="8" width="42" height="16"></rect>
            <rect id="top-front-highlight" fill="#F0F0F0" x="11" y="8" width="16" height="16"></rect>
            <rect id="left-highlight" fill="#BEBEBE" x="11" y="24" width="16" height="26"></rect>
            <rect id="top-high-light" fill="#D9D9D9" x="11" y="0" width="42" height="8"></rect>
            <rect id="eye-color" fill="#150092" opacity="0.583067412" style="mix-blend-mode: hard-light;" x="11" y="0" width="42" height="50"></rect>
        </g>
    </g>
</svg>