<?xml version="1.0" encoding="UTF-8"?>
<svg width="32px" height="32px" viewBox="0 0 32 32" version="1.1" xmlns="http://www.w3.org/2000/svg" xmlns:xlink="http://www.w3.org/1999/xlink">
    <title>uorphia-32</title>
    <g id="uorphia-32" stroke="none" stroke-width="1" fill="none" fill-rule="evenodd">
        <path d="M28,23 L26,23 L26,29 L22,29 L22,23 L20,23 L20,29 L16,29 L16,23 L14,23 L14,29 L10,29 L10,23 L8,23 L8,29 L4,29 L4,3 L28,3 L28,23 Z M20,15 L16,15 L16,19 L20,19 L20,15 Z M12,15 L8,15 L8,19 L12,19 L12,15 Z M16,9 L12,9 L12,13 L16,13 L16,9 Z" id="Combined-Shape" fill="#FFFFFF"></path>
    </g>
</svg>