<?xml version="1.0" encoding="UTF-8"?>
<svg width="280px" height="599px" viewBox="0 0 280 599" version="1.1" xmlns="http://www.w3.org/2000/svg" xmlns:xlink="http://www.w3.org/1999/xlink">
    <title>honey-right</title>
    <g id="honey-right" stroke="none" stroke-width="1" fill="none" fill-rule="evenodd">
        <g id="Group" transform="translate(-662.000000, 31.000000)" fill="#000000" fill-rule="nonzero">
            <path d="M674.678261,303.579509 L687,296.509949 L686.886957,281.522482 L686.717391,266.478459 L674.282609,259.239229 C667.443478,255.280276 661.452174,252 661,252 C660.547826,252 654.556522,255.223719 647.717391,259.239229 L635.282609,266.421902 L635.113043,281.465925 L635,296.453392 L647.830435,303.918847 C655.121739,308.104027 661.056522,311.214633 661.565217,310.988407 C662.017391,310.818738 667.952174,307.481906 674.678261,303.579509 Z" id="Path" transform="translate(661.000000, 281.500000) scale(-1, 1) rotate(-180.000000) translate(-661.000000, -281.500000) "></path>
            <path d="M701.558242,351.779843 L714,344.504002 L714,329.444704 L714,314.385405 L701.950549,307.335172 C695.337363,303.443443 689.508791,300.172135 689.06044,300.00293 C688.556044,299.890126 682.503297,303.04863 675.60989,307.109565 L663,314.441807 L663,329.444704 L663,344.4476 L675.32967,351.723441 C682.110989,355.671571 687.995604,358.999281 688.387912,358.999281 C688.724176,359.055683 694.664835,355.784375 701.558242,351.779843 Z" id="Path" transform="translate(688.500000, 329.500000) scale(-1, 1) rotate(-180.000000) translate(-688.500000, -329.500000) "></path>
            <path d="M674.282609,399.759348 L686.717391,392.518696 L686.886957,377.471716 L687,362.481304 L674.452174,355.240652 C667.5,351.224353 661.452174,348 661,348 C660.547826,348 654.5,351.28092 647.547826,355.240652 L635,362.537872 L635.113043,377.528284 L635.282609,392.575264 L647.717391,399.759348 C654.556522,403.775647 660.547826,407 661,407 C661.452174,407 667.443478,403.71908 674.282609,399.759348 Z" id="Path" transform="translate(661.000000, 377.500000) scale(-1, 1) rotate(-180.000000) translate(-661.000000, -377.500000) "></path>
            <path d="M701.773913,447.520635 L714.717391,440.041969 L714.886957,425.027979 L715,410.01399 L702,402.478667 L689,395 L676,402.478667 L663,410.01399 L663.113043,425.027979 L663.282609,440.041969 L676,447.463979 C683.008696,451.599908 688.717391,454.942645 688.773913,454.999302 C688.830435,455.055958 694.652174,451.656565 701.773913,447.520635 Z" id="Path-Copy" transform="translate(689.000000, 425.000000) scale(-1, 1) rotate(-180.000000) translate(-689.000000, -425.000000) "></path>
            <path d="M756.773913,447.520635 L769.717391,440.041969 L769.886957,425.027979 L770,410.01399 L757,402.478667 L744,395 L731,402.478667 L718,410.01399 L718.113043,425.027979 L718.282609,440.041969 L731,447.463979 C738.008696,451.599908 743.717391,454.942645 743.773913,454.999302 C743.830435,455.055958 749.652174,451.656565 756.773913,447.520635 Z" id="Path-Copy-2" transform="translate(744.000000, 425.000000) scale(-1, 1) rotate(-180.000000) translate(-744.000000, -425.000000) "></path>
            <path d="M867.773913,447.520635 L880.717391,440.041969 L880.886957,425.027979 L881,410.01399 L868,402.478667 L855,395 L842,402.478667 L829,410.01399 L829,425.027979 L829.056522,440.041969 L841.886957,447.463979 C848.952174,451.599908 854.717391,454.942645 854.773913,454.999302 C854.830435,455.055958 860.652174,451.656565 867.773913,447.520635 Z" id="Path-Copy-4" transform="translate(855.000000, 425.000000) scale(-1, 1) rotate(-180.000000) translate(-855.000000, -425.000000) "></path>
            <path d="M867.773913,52.5206354 L880.717391,45.0419688 L880.886957,30.0279792 L881,15.0139896 L868,7.47866653 L855,0 L842,7.47866653 L829,15.0139896 L829,30.0279792 L829.056522,45.0419688 L841.886957,52.4639788 C848.952174,56.599908 854.717391,59.9426453 854.773913,59.9993019 C854.830435,60.0559585 860.652174,56.6565646 867.773913,52.5206354 Z" id="Path-Copy-5" transform="translate(855.000000, 30.000000) scale(-1, 1) rotate(-180.000000) translate(-855.000000, -30.000000) "></path>
            <path d="M730.226087,495.617397 L743,488.347341 L743,473.527611 L743,458.707882 L730,451.325979 L717,444 L704,451.325979 L691,458.707882 L691,473.527611 L691,488.347341 L703.886957,495.729244 C710.952174,499.755736 716.886957,503.055223 717.113043,502.999299 C717.282609,502.943376 723.217391,499.643889 730.226087,495.617397 Z" id="Path-Copy-7" transform="translate(717.000000, 473.500000) scale(-1, 1) rotate(-180.000000) translate(-717.000000, -473.500000) "></path>
            <path d="M840.226087,495.499377 L853,488.113101 L853,473.056462 L852.943478,457.999822 L840,450.499911 L827,443 L814,450.499911 L801,457.999822 L801,473.056462 L801,488.113101 L813.886957,495.613012 C820.952174,499.703873 826.886957,503.056106 827.056522,502.999288 C827.282609,502.942471 833.16087,499.590238 840.226087,495.499377 Z" id="Path-Copy-9" transform="translate(827.000000, 473.000000) scale(-1, 1) rotate(-180.000000) translate(-827.000000, -473.000000) "></path>
            <path d="M840.226087,100.499377 L853,93.1131012 L853,78.0564616 L852.943478,62.9998221 L840,55.499911 L827,48 L814,55.499911 L801,62.9998221 L801,78.0564616 L801,93.1131012 L813.886957,100.613012 C820.952174,104.703873 826.886957,108.056106 827.056522,107.999288 C827.282609,107.942471 833.16087,104.590238 840.226087,100.499377 Z" id="Path-Copy-11" transform="translate(827.000000, 78.000000) scale(-1, 1) rotate(-180.000000) translate(-827.000000, -78.000000) "></path>
            <path d="M702.056522,542.575786 L715,535.151573 L714.886957,520.246902 L714.717391,505.342231 L702.282609,498.142993 C695.443478,494.20591 689.452174,491 689,491 C688.547826,491 682.556522,494.20591 675.717391,498.142993 L663.282609,505.342231 L663.113043,520.246902 L663,535.151573 L675.830435,542.575786 C682.952174,546.625357 688.830435,549.943756 688.886957,550 C689,550 694.934783,546.681602 702.056522,542.575786 Z" id="Path-Copy-12" transform="translate(689.000000, 520.500000) scale(-1, 1) rotate(-180.000000) translate(-689.000000, -520.500000) "></path>
            <path d="M757.056522,542.575786 L770,535.151573 L769.886957,520.246902 L769.717391,505.342231 L757.282609,498.142993 C750.443478,494.20591 744.452174,491 744,491 C743.547826,491 737.556522,494.20591 730.717391,498.142993 L718.282609,505.342231 L718.113043,520.246902 L718,535.151573 L730.830435,542.575786 C737.952174,546.625357 743.830435,549.943756 743.886957,550 C744,550 749.934783,546.681602 757.056522,542.575786 Z" id="Path-Copy-13" transform="translate(744.000000, 520.500000) scale(-1, 1) rotate(-180.000000) translate(-744.000000, -520.500000) "></path>
            <path d="M813.056522,542.575786 L826,535.095329 L825.886957,520.246902 L825.717391,505.342231 L813.282609,498.142993 C806.443478,494.20591 800.452174,491 800,491 C799.547826,491 793.556522,494.20591 786.717391,498.142993 L774.282609,505.342231 L774.113043,520.246902 L774,535.151573 L786.830435,542.575786 C793.952174,546.625357 799.830435,550 799.943478,550 C800.056522,550 805.934783,546.625357 813.056522,542.575786 Z" id="Path-Copy-14" transform="translate(800.000000, 520.500000) scale(-1, 1) rotate(-180.000000) translate(-800.000000, -520.500000) "></path>
            <path d="M868.056522,542.582857 L881,535.109524 L880.886957,520.275238 L880.717391,505.384762 L868.282609,498.192381 C861.443478,494.259048 855.452174,491.05619 855,491 C854.547826,491 848.556522,494.259048 841.717391,498.192381 L829.282609,505.384762 L829.113043,520.275238 L829,535.165714 L841.830435,542.582857 C848.952174,546.628571 854.830435,550 854.943478,550 C855.056522,550 860.934783,546.628571 868.056522,542.582857 Z" id="Path-Copy-15" transform="translate(855.000000, 520.500000) scale(-1, 1) rotate(-180.000000) translate(-855.000000, -520.500000) "></path>
            <path d="M730.678261,590.565454 L743,583.482692 L742.886957,568.467235 L742.717391,553.451779 L730.565217,546.369016 C723.895652,542.459332 718.017391,539.17293 717.508696,539.002943 C717.056522,538.889619 710.952174,542.062697 703.943478,546.085706 L691.282609,553.451779 L691.113043,568.467235 L691,583.482692 L703.830435,590.905427 C711.178261,595.155084 717.056522,598.214838 717.565217,597.988189 C718.017391,597.818203 723.952174,594.475139 730.678261,590.565454 Z" id="Path-Copy-17" transform="translate(717.000000, 568.500000) scale(-1, 1) rotate(-180.000000) translate(-717.000000, -568.500000) "></path>
            <path d="M785.678261,590.586444 L798,583.523678 L797.886957,568.550613 L797.717391,553.577549 L785.113043,546.288775 C778.16087,542.277123 772.282609,539 772,539 C771.717391,539 765.83913,542.277123 758.886957,546.288775 L746.282609,553.577549 L746.113043,568.550613 L746,583.523678 L758.830435,590.925457 C766.178261,595.163116 772.056522,598.214231 772.565217,597.988223 C773.017391,597.818716 778.952174,594.485091 785.678261,590.586444 Z" id="Path-Copy-18" transform="translate(772.000000, 568.500000) scale(-1, 1) rotate(-180.000000) translate(-772.000000, -568.500000) "></path>
            <path d="M840.678261,590.565454 L853,583.482692 L852.886957,568.467235 L852.717391,553.451779 L840.056522,546.085706 C833.047826,542.062697 826.943478,538.889619 826.491304,539.002943 C825.982609,539.17293 820.104348,542.459332 813.434783,546.369016 L801.282609,553.451779 L801.113043,568.467235 L801,583.482692 L813.830435,590.905427 C821.178261,595.155084 827.056522,598.214838 827.565217,597.988189 C828.017391,597.818203 833.952174,594.475139 840.678261,590.565454 Z" id="Path-Copy-19" transform="translate(827.000000, 568.500000) scale(-1, 1) rotate(-180.000000) translate(-827.000000, -568.500000) "></path>
            <path d="M895.226087,495.499377 L908,488.113101 L908,473.056462 L907.943478,457.999822 L895,450.499911 L882,443 L869,450.499911 L856,457.999822 L856,473.056462 L856,488.113101 L868.886957,495.613012 C875.952174,499.703873 881.886957,503.056106 882.056522,502.999288 C882.282609,502.942471 888.16087,499.590238 895.226087,495.499377 Z" id="Path-Copy-10" transform="translate(882.000000, 473.000000) scale(-1, 1) rotate(-180.000000) translate(-882.000000, -473.000000) "></path>
            <path d="M895.226087,100.499377 L908,93.1131012 L908,78.0564616 L907.943478,62.9998221 L895,55.499911 L882,48 L869,55.499911 L856,62.9998221 L856,78.0564616 L856,93.1131012 L868.886957,100.613012 C875.952174,104.703873 881.886957,108.056106 882.056522,107.999288 C882.282609,107.942471 888.16087,104.590238 895.226087,100.499377 Z" id="Path-Copy-16" transform="translate(882.000000, 78.000000) scale(-1, 1) rotate(-180.000000) translate(-882.000000, -78.000000) "></path>
            <path d="M895.678261,590.579428 L908,583.509978 L907.886957,568.466188 L907.717391,553.422399 L895.282609,546.239837 C888.443478,542.22439 882.508696,539.000721 882.113043,539.000721 C881.773913,538.944165 875.782609,542.22439 868.830435,546.239837 L856.282609,553.53551 L856.113043,568.522744 L856,583.509978 L868.830435,590.918762 C876.178261,595.160432 882.056522,598.214434 882.565217,597.988212 C883.017391,597.818545 888.952174,594.481764 895.678261,590.579428 Z" id="Path-Copy-20" transform="translate(882.000000, 568.500000) scale(-1, 1) rotate(-180.000000) translate(-882.000000, -568.500000) "></path>
        </g>
    </g>
</svg>